<svg width="236" height="52" viewBox="0 0 236 52" fill="none" xmlns="http://www.w3.org/2000/svg">
<g filter="url(#filter0_i_1_3163)">
<path d="M0 5C0 2.23858 2.23858 0 5 0H231C233.761 0 236 2.23858 236 5V36C236 38.7614 233.761 41 231 41H169.75H144.125H133.1C131.944 41 130.824 41.4003 129.93 42.1327L121.669 48.9027C119.826 50.4131 117.174 50.4131 115.331 48.9027L107.07 42.1327C106.176 41.4003 105.056 41 103.9 41H92.875H67.25H5C2.23858 41 0 38.7614 0 36V5Z" fill="white" fill-opacity="0.02"/>
</g>
<path d="M0.5 5C0.5 2.51472 2.51472 0.5 5 0.5H231C233.485 0.5 235.5 2.51472 235.5 5V36C235.5 38.4853 233.485 40.5 231 40.5H169.75H144.125H133.1C131.828 40.5 130.597 40.9403 129.613 41.746L121.352 48.516C119.694 49.8753 117.306 49.8753 115.648 48.516L107.387 41.746C106.403 40.9403 105.172 40.5 103.9 40.5H92.875H67.25H5C2.51472 40.5 0.5 38.4853 0.5 36V5Z" stroke="white" stroke-opacity="0.1"/>
<path d="M14.76 26C14.52 26 14.36 25.92 14.36 25.76V25.72C14.36 25.34 15.1 25.32 15.1 24.6V12.66H12.38C11.36 12.66 11.24 14.82 10.66 14.82H10.48C10.28 14.82 10.18 14.7 10.22 14.42L10.54 12.24C10.58 11.96 10.72 11.8 11.04 11.8H20.98C21.3 11.8 21.44 11.96 21.5 12.24L21.94 14.44C22 14.7 21.88 14.82 21.7 14.82H21.5C20.92 14.82 20.66 12.66 19.66 12.66H16.9V24.6C16.9 25.32 17.68 25.34 17.68 25.72V25.76C17.68 25.92 17.52 26 17.26 26H14.76ZM26.2278 16.2C27.4278 16.2 28.0678 16.9 28.0678 17.74C28.0678 18.26 27.8278 18.68 27.2678 18.68C26.2278 18.68 26.7278 17.28 25.4878 17.28C24.3878 17.28 23.7878 18.54 23.7878 20.04V24.6C23.7878 25.3 24.6278 25.32 24.6278 25.68V25.76C24.6278 25.92 24.4878 26 24.2278 26H21.7478C21.4878 26 21.3478 25.92 21.3478 25.76V25.68C21.3478 25.32 22.0878 25.3 22.0878 24.6V18.52C22.0878 17.76 21.2878 17.74 21.2878 17.36V17.32C21.2878 17.18 21.4078 17.06 21.5878 16.96L23.1078 16.28C23.4878 16.1 23.6278 16.26 23.6278 16.56V18.16C24.0678 16.88 24.9878 16.2 26.2278 16.2ZM36.7492 23.18C36.9292 22.9 37.3892 22.96 37.3292 23.34C37.0892 24.54 35.7692 26.2 33.2692 26.2C30.6892 26.2 28.6292 24.24 28.6292 21.12C28.6292 18.3 30.6892 16.2 33.3492 16.2C35.7492 16.2 37.0692 17.78 37.0692 19.16C37.0692 19.8 36.7292 20.14 36.1292 20.34L30.5892 22.16C31.0492 23.88 32.2692 24.92 33.8892 24.92C35.3692 24.92 36.3092 24.14 36.7492 23.18ZM33.0492 16.84C31.4292 16.84 30.3692 18.44 30.3692 20.48C30.3692 20.84 30.3892 21.18 30.4492 21.5L34.9092 19.9C35.2492 19.76 35.3892 19.54 35.3892 19.2C35.3892 18.3 34.4292 16.84 33.0492 16.84ZM46.8116 24.4C46.9316 25.64 47.9316 25.2 47.9316 25.7C47.9316 26 47.3916 26.12 46.6516 26.12C45.7516 26.12 45.2716 25.9 45.1916 24.8C44.7316 25.64 43.7716 26.2 42.3116 26.2C40.1116 26.2 38.5916 25.1 38.5916 23.18C38.5716 21.26 40.1716 20.22 42.2516 20.22C43.3116 20.22 44.1716 20.52 44.7116 21.02L44.6716 20.48C44.4516 18.12 43.8116 16.84 42.2116 16.84C40.1316 16.84 40.4516 19.12 39.4516 19.12C38.9716 19.12 38.6716 18.84 38.6716 18.38C38.6716 17.32 40.0316 16.2 42.2116 16.2C44.6716 16.2 46.1516 17.78 46.4116 20.42L46.8116 24.4ZM42.7516 25.56C44.0916 25.56 44.9716 24.58 44.9316 23.36L44.8516 22.46C44.6516 21.52 43.8316 20.86 42.6516 20.86C41.2916 20.86 40.3516 21.7 40.3516 22.94C40.3516 24.4 41.3116 25.56 42.7516 25.56ZM52.6488 26.18C49.9888 26.18 48.5888 24.84 48.5888 23.9C48.5888 23.42 48.9088 23.16 49.3688 23.16C50.6087 23.16 49.9688 25.6 52.6488 25.6C53.9288 25.6 54.9288 24.98 54.9288 23.84C54.9288 20.9 48.8088 22.88 48.8088 18.94C48.8088 17.4 50.3688 16.2 52.5688 16.2C55.0488 16.2 56.4688 17.48 56.4688 18.56C56.4688 18.96 56.1488 19.26 55.7488 19.26C54.6088 19.26 55.1088 16.82 52.6488 16.82C51.4888 16.82 50.5888 17.56 50.5888 18.56C50.5888 21.44 56.6888 19.48 56.6888 23.48C56.6888 24.98 55.1288 26.18 52.6488 26.18ZM67.0247 24.28C67.0247 25.74 68.1447 25.12 68.1447 25.7C68.1447 26.04 67.7447 26.12 66.9047 26.12C66.0047 26.12 65.4047 25.76 65.4447 24.64L65.4047 24.52C64.8247 25.58 63.7447 26.2 62.3247 26.2C60.1447 26.2 58.6247 24.6 58.6247 21.64V18.1C58.6247 17.34 57.8847 17.28 57.8847 16.94V16.88C57.8847 16.74 58.0047 16.62 58.1847 16.58L59.8647 16.28C60.2047 16.22 60.4047 16.26 60.4047 16.52L60.3847 21.78C60.3847 24.1 61.2247 25.42 62.7447 25.42C64.1647 25.42 65.2847 24.22 65.2847 22.38V18.1C65.2847 17.34 64.5047 17.3 64.5047 16.94V16.88C64.5047 16.74 64.6047 16.62 64.8047 16.58L66.5047 16.28C66.8447 16.22 67.0247 16.26 67.0247 16.52V24.28ZM74.3333 16.2C75.5333 16.2 76.1733 16.9 76.1733 17.74C76.1733 18.26 75.9333 18.68 75.3733 18.68C74.3333 18.68 74.8333 17.28 73.5933 17.28C72.4933 17.28 71.8933 18.54 71.8933 20.04V24.6C71.8933 25.3 72.7333 25.32 72.7333 25.68V25.76C72.7333 25.92 72.5933 26 72.3333 26H69.8533C69.5933 26 69.4533 25.92 69.4533 25.76V25.68C69.4533 25.32 70.1933 25.3 70.1933 24.6V18.52C70.1933 17.76 69.3933 17.74 69.3933 17.36V17.32C69.3933 17.18 69.5133 17.06 69.6933 16.96L71.2133 16.28C71.5933 16.1 71.7333 16.26 71.7333 16.56V18.16C72.1733 16.88 73.0933 16.2 74.3333 16.2ZM84.8547 23.18C85.0347 22.9 85.4947 22.96 85.4347 23.34C85.1947 24.54 83.8747 26.2 81.3747 26.2C78.7947 26.2 76.7347 24.24 76.7347 21.12C76.7347 18.3 78.7947 16.2 81.4547 16.2C83.8547 16.2 85.1747 17.78 85.1747 19.16C85.1747 19.8 84.8347 20.14 84.2347 20.34L78.6947 22.16C79.1547 23.88 80.3747 24.92 81.9947 24.92C83.4747 24.92 84.4147 24.14 84.8547 23.18ZM81.1547 16.84C79.5347 16.84 78.4747 18.44 78.4747 20.48C78.4747 20.84 78.4947 21.18 78.5547 21.5L83.0147 19.9C83.3547 19.76 83.4947 19.54 83.4947 19.2C83.4947 18.3 82.5347 16.84 81.1547 16.84ZM99.4092 24.4C99.5292 25.64 100.529 25.2 100.529 25.7C100.529 26 99.9892 26.12 99.2492 26.12C98.3492 26.12 97.8692 25.9 97.7892 24.8C97.3292 25.64 96.3692 26.2 94.9092 26.2C92.7092 26.2 91.1892 25.1 91.1892 23.18C91.1692 21.26 92.7692 20.22 94.8492 20.22C95.9092 20.22 96.7692 20.52 97.3092 21.02L97.2692 20.48C97.0492 18.12 96.4092 16.84 94.8092 16.84C92.7292 16.84 93.0492 19.12 92.0492 19.12C91.5692 19.12 91.2692 18.84 91.2692 18.38C91.2692 17.32 92.6292 16.2 94.8092 16.2C97.2692 16.2 98.7492 17.78 99.0092 20.42L99.4092 24.4ZM95.3492 25.56C96.6892 25.56 97.5692 24.58 97.5292 23.36L97.4492 22.46C97.2492 21.52 96.4292 20.86 95.2492 20.86C93.8892 20.86 92.9492 21.7 92.9492 22.94C92.9492 24.4 93.9092 25.56 95.3492 25.56ZM110.846 24.56C110.886 25.3 111.566 25.3 111.566 25.68V25.76C111.566 25.92 111.406 26.02 111.146 26.02H108.766C108.506 26.02 108.346 25.92 108.346 25.76V25.68C108.346 25.3 109.106 25.3 109.066 24.58L108.866 20.58C108.766 18.14 107.786 16.98 106.406 16.98C104.926 16.98 103.906 18.16 103.906 19.74V24.6C103.906 25.3 104.706 25.3 104.706 25.68V25.76C104.706 25.92 104.546 26.02 104.286 26.02H101.786C101.546 26.02 101.386 25.92 101.386 25.76V25.68C101.386 25.3 102.166 25.3 102.166 24.6V18.54C102.166 17.68 101.326 17.72 101.326 17.36V17.3C101.326 17.16 101.446 17.08 101.646 17L103.146 16.28C103.526 16.08 103.706 16.28 103.706 16.58V18.04C104.286 16.92 105.446 16.2 106.826 16.2C108.786 16.2 110.426 17.52 110.626 20.62L110.846 24.56ZM122.011 24.6C122.011 25.32 122.751 25.38 122.751 25.72V25.78C122.751 25.92 122.651 26 122.451 26H120.771C120.571 26 120.451 25.86 120.431 25.68L120.391 24.68C119.711 25.68 118.531 26.2 117.351 26.2C114.911 26.2 112.731 24.22 112.731 21.18C112.731 18.26 114.751 16.2 117.411 16.2C118.631 16.2 119.631 16.72 120.311 17.5V13.14C120.311 12.3 119.471 12.32 119.471 11.96V11.92C119.471 11.76 119.591 11.66 119.771 11.58L121.391 11.04C121.811 10.88 122.011 11 122.011 11.34V24.6ZM117.771 25.54C118.911 25.54 120.311 24.58 120.311 22.66H120.331L120.311 21.64V19.64C120.311 18.36 119.031 16.84 117.391 16.84C115.671 16.84 114.471 18.34 114.451 20.58C114.411 23.32 115.771 25.52 117.771 25.54ZM129.51 26C129.27 26 129.09 25.92 129.09 25.76V25.72C129.09 25.34 129.83 25.34 129.83 24.58V13.22C129.83 12.46 129.09 12.44 129.09 12.08V12.02C129.09 11.88 129.23 11.8 129.45 11.8H137.93C138.25 11.8 138.37 11.96 138.43 12.24L138.91 14.22C138.97 14.5 138.87 14.62 138.67 14.62H138.57C137.95 14.62 137.47 12.62 136.43 12.62H132.19C131.83 12.62 131.63 12.82 131.63 13.3V18.32H135.27C136.03 18.32 136.01 17.14 136.43 17.14H136.51C136.67 17.14 136.77 17.26 136.77 17.48V19.94C136.77 20.14 136.67 20.28 136.51 20.28H136.43C136.01 20.28 136.03 19.14 135.27 19.14H131.63L131.61 24.32C131.61 24.78 131.85 25.18 132.35 25.18H137.05C138.11 25.18 138.45 23.12 139.15 23.12H139.27C139.45 23.12 139.55 23.3 139.51 23.52L139.03 25.54C138.97 25.84 138.83 26 138.51 26H129.51ZM145.482 26.2C142.702 26.2 140.482 24.04 140.482 21.14C140.482 18.14 142.682 16.22 145.402 16.2C147.582 16.18 149.302 17.56 149.302 18.68C149.302 19.08 149.062 19.4 148.502 19.38C147.342 19.34 147.362 16.86 145.082 16.84C143.422 16.84 142.242 18.38 142.242 20.36C142.242 23.16 143.822 24.94 146.042 24.94C147.442 24.94 148.362 24.06 148.822 23.06C148.982 22.76 149.482 22.82 149.402 23.22C149.122 24.68 147.802 26.2 145.482 26.2ZM155.821 26.2C152.641 26.2 150.601 23.78 150.601 21.06C150.601 18.28 152.721 16.2 155.461 16.2C158.461 16.2 160.541 18.48 160.541 21.28C160.541 24.04 158.641 26.2 155.821 26.2ZM156.061 25.54C157.621 25.54 158.781 24.12 158.781 21.88C158.781 19.08 157.301 16.86 155.261 16.86C153.561 16.86 152.381 18.26 152.381 20.5C152.381 23.06 153.861 25.54 156.061 25.54ZM165.93 26.18C163.27 26.18 161.87 24.84 161.87 23.9C161.87 23.42 162.19 23.16 162.65 23.16C163.89 23.16 163.25 25.6 165.93 25.6C167.21 25.6 168.21 24.98 168.21 23.84C168.21 20.9 162.09 22.88 162.09 18.94C162.09 17.4 163.65 16.2 165.85 16.2C168.33 16.2 169.75 17.48 169.75 18.56C169.75 18.96 169.43 19.26 169.03 19.26C167.89 19.26 168.39 16.82 165.93 16.82C164.77 16.82 163.87 17.56 163.87 18.56C163.87 21.44 169.97 19.48 169.97 23.48C169.97 24.98 168.41 26.18 165.93 26.18ZM180.531 16.4C180.691 16.4 180.811 16.48 180.811 16.64V16.7C180.811 17.1 180.291 17.08 179.911 17.94L176.131 26.28C175.351 28.04 174.431 30.24 172.471 30.24C170.971 30.24 170.011 29.24 170.011 28.46C170.011 28 170.291 27.66 170.771 27.66C171.811 27.66 171.531 29.54 172.771 29.54C173.631 29.54 174.511 28.14 175.211 26.38L171.371 17.92C170.971 17.08 170.411 17.1 170.411 16.7V16.64C170.411 16.48 170.551 16.4 170.711 16.4H173.311C173.471 16.4 173.591 16.5 173.591 16.64V16.7C173.591 17.1 172.871 17.08 173.251 17.94L176.131 24.72L178.991 18.1C179.431 17.08 178.231 17.1 178.231 16.7V16.64C178.231 16.5 178.351 16.4 178.531 16.4H180.531ZM185.305 26.18C182.645 26.18 181.245 24.84 181.245 23.9C181.245 23.42 181.565 23.16 182.025 23.16C183.265 23.16 182.625 25.6 185.305 25.6C186.585 25.6 187.585 24.98 187.585 23.84C187.585 20.9 181.465 22.88 181.465 18.94C181.465 17.4 183.025 16.2 185.225 16.2C187.705 16.2 189.125 17.48 189.125 18.56C189.125 18.96 188.805 19.26 188.405 19.26C187.265 19.26 187.765 16.82 185.305 16.82C184.145 16.82 183.245 17.56 183.245 18.56C183.245 21.44 189.345 19.48 189.345 23.48C189.345 24.98 187.785 26.18 185.305 26.18ZM194.223 26.2C192.683 26.2 191.643 25.22 191.643 23.18V17.2H190.323C190.143 17.2 190.023 17.08 190.023 16.9V16.7C190.023 16.52 190.123 16.4 190.323 16.4H191.043C192.003 16.4 192.463 15.64 192.563 14.5C192.583 14.24 192.723 14.1 192.903 14.1H193.103C193.343 14.1 193.423 14.24 193.423 14.5L193.443 16.4H196.203C196.363 16.4 196.503 16.54 196.503 16.7V16.9C196.503 17.08 196.363 17.2 196.203 17.2H193.443V23.2C193.443 24.3 193.963 24.88 194.703 24.88C195.583 24.88 196.103 24.36 196.183 23.68C196.303 23.38 196.783 23.4 196.783 23.76C196.783 25 195.823 26.2 194.223 26.2ZM205.734 23.18C205.914 22.9 206.374 22.96 206.314 23.34C206.074 24.54 204.754 26.2 202.254 26.2C199.674 26.2 197.614 24.24 197.614 21.12C197.614 18.3 199.674 16.2 202.334 16.2C204.734 16.2 206.054 17.78 206.054 19.16C206.054 19.8 205.714 20.14 205.114 20.34L199.574 22.16C200.034 23.88 201.254 24.92 202.874 24.92C204.354 24.92 205.294 24.14 205.734 23.18ZM202.034 16.84C200.414 16.84 199.354 18.44 199.354 20.48C199.354 20.84 199.374 21.18 199.434 21.5L203.894 19.9C204.234 19.76 204.374 19.54 204.374 19.2C204.374 18.3 203.414 16.84 202.034 16.84ZM223.636 24.58C223.676 25.3 224.376 25.34 224.376 25.7V25.78C224.376 25.94 224.196 26.02 223.976 26.02H221.576C221.316 26.02 221.176 25.94 221.176 25.78V25.7C221.176 25.34 221.896 25.3 221.876 24.6L221.676 20.7C221.536 18 220.636 16.98 219.176 16.98C217.916 16.98 216.856 18.1 216.796 19.62C216.856 19.92 216.876 20.26 216.876 20.6V24.6C216.876 25.3 217.576 25.34 217.576 25.7V25.78C217.576 25.94 217.436 26.02 217.196 26.02H214.836C214.576 26.02 214.416 25.94 214.416 25.78V25.7C214.416 25.34 215.116 25.3 215.116 24.6V20.5C215.116 18.28 214.016 16.98 212.636 16.98C211.216 16.98 210.216 18.18 210.156 19.68L210.176 24.6C210.176 25.3 210.956 25.34 210.956 25.7V25.78C210.956 25.94 210.796 26.02 210.556 26.02H208.056C207.816 26.02 207.656 25.94 207.656 25.78V25.7C207.656 25.34 208.416 25.3 208.416 24.6V18.54C208.416 17.74 207.616 17.72 207.616 17.36V17.3C207.616 17.16 207.716 17.08 207.916 17L209.476 16.28C209.856 16.08 210.056 16.28 210.056 16.58V18C210.636 16.92 211.736 16.2 213.016 16.2C214.496 16.2 215.796 16.98 216.436 18.4C216.936 17.02 218.196 16.2 219.636 16.2C221.676 16.2 223.216 17.44 223.416 20.74L223.636 24.58Z" fill="#D9D9D9"/>
<defs>
<filter id="filter0_i_1_3163" x="0" y="0" width="236" height="50.0354" filterUnits="userSpaceOnUse" color-interpolation-filters="sRGB">
<feFlood flood-opacity="0" result="BackgroundImageFix"/>
<feBlend mode="normal" in="SourceGraphic" in2="BackgroundImageFix" result="shape"/>
<feColorMatrix in="SourceAlpha" type="matrix" values="0 0 0 0 0 0 0 0 0 0 0 0 0 0 0 0 0 0 127 0" result="hardAlpha"/>
<feOffset/>
<feGaussianBlur stdDeviation="7.5"/>
<feComposite in2="hardAlpha" operator="arithmetic" k2="-1" k3="1"/>
<feColorMatrix type="matrix" values="0 0 0 0 1 0 0 0 0 1 0 0 0 0 1 0 0 0 0.5 0"/>
<feBlend mode="normal" in2="shape" result="effect1_innerShadow_1_3163"/>
</filter>
</defs>
</svg>
