<svg width="115" height="52" viewBox="0 0 115 52" fill="none" xmlns="http://www.w3.org/2000/svg">
<g filter="url(#filter0_i_1_3160)">
<path d="M0 5C0 2.23858 2.23858 0 5 0H110C112.761 0 115 2.23858 115 5V36C115 38.7614 112.761 41 110 41H109.75H84.125H73.0996C71.944 41 70.8241 41.4003 69.9303 42.1327L61.6693 48.9027C59.8263 50.4131 57.1737 50.4131 55.3307 48.9027L47.0697 42.1327C46.1759 41.4003 45.056 41 43.9004 41H32.875H7.25H5C2.23858 41 0 38.7614 0 36V5Z" fill="white" fill-opacity="0.02"/>
</g>
<path d="M0.5 5C0.5 2.51472 2.51472 0.5 5 0.5H110C112.485 0.5 114.5 2.51472 114.5 5V36C114.5 38.4853 112.485 40.5 110 40.5H109.75H84.125H73.0996C71.8284 40.5 70.5965 40.9403 69.6134 41.746L61.3523 48.516C59.6937 49.8753 57.3063 49.8753 55.6477 48.516L47.3866 41.746C46.4035 40.9403 45.1716 40.5 43.9004 40.5H32.875H7.25H5C2.51472 40.5 0.5 38.4853 0.5 36V5Z" stroke="white" stroke-opacity="0.1"/>
<path d="M29.7 25.54C29.86 26.32 30.52 26.34 30.52 26.72V26.76C30.52 26.92 30.36 27 30.1 27H27.64C27.4 27 27.24 26.92 27.24 26.76V26.72C27.24 26.34 28.06 26.32 27.9 25.54L26.14 15.56L22.12 26.56C22 26.84 21.88 26.98 21.6 26.98C21.34 26.98 21.18 26.86 21.06 26.58L17 15.32L15.28 25.54C15.14 26.3 16.04 26.34 16.04 26.72V26.76C16.04 26.92 15.88 27 15.64 27H13.82C13.58 27 13.42 26.92 13.42 26.76V26.72C13.42 26.34 14.08 26.3 14.22 25.54L16.16 14.24C16.28 13.54 15.5 13.52 15.5 13.1V13.06C15.5 12.9 15.62 12.8 15.84 12.8H17.16C17.54 12.8 17.82 12.98 17.94 13.32L21.84 24.62L25.86 13.3C25.98 12.98 26.2 12.8 26.58 12.8H28C28.16 12.8 28.3 12.88 28.3 13.02V13.08C28.3 13.48 27.46 13.54 27.62 14.4L29.7 25.54ZM39.792 25.4C39.912 26.64 40.912 26.2 40.912 26.7C40.912 27 40.372 27.12 39.632 27.12C38.732 27.12 38.252 26.9 38.172 25.8C37.712 26.64 36.752 27.2 35.292 27.2C33.092 27.2 31.572 26.1 31.572 24.18C31.552 22.26 33.152 21.22 35.232 21.22C36.292 21.22 37.152 21.52 37.692 22.02L37.652 21.48C37.432 19.12 36.792 17.84 35.192 17.84C33.112 17.84 33.432 20.12 32.432 20.12C31.952 20.12 31.652 19.84 31.652 19.38C31.652 18.32 33.012 17.2 35.192 17.2C37.652 17.2 39.132 18.78 39.392 21.42L39.792 25.4ZM35.732 26.56C37.072 26.56 37.952 25.58 37.912 24.36L37.832 23.46C37.632 22.52 36.812 21.86 35.632 21.86C34.272 21.86 33.332 22.7 33.332 23.94C33.332 25.4 34.292 26.56 35.732 26.56ZM46.6692 17.2C47.8692 17.2 48.5092 17.9 48.5092 18.74C48.5092 19.26 48.2692 19.68 47.7092 19.68C46.6692 19.68 47.1692 18.28 45.9292 18.28C44.8292 18.28 44.2292 19.54 44.2292 21.04V25.6C44.2292 26.3 45.0692 26.32 45.0692 26.68V26.76C45.0692 26.92 44.9292 27 44.6692 27H42.1892C41.9292 27 41.7892 26.92 41.7892 26.76V26.68C41.7892 26.32 42.5292 26.3 42.5292 25.6V19.52C42.5292 18.76 41.7292 18.74 41.7292 18.36V18.32C41.7292 18.18 41.8492 18.06 42.0292 17.96L43.5492 17.28C43.9292 17.1 44.0692 17.26 44.0692 17.56V19.16C44.5092 17.88 45.4292 17.2 46.6692 17.2ZM58.2264 25.86C58.5864 26.32 59.2264 26.36 59.2264 26.72V26.76C59.2264 26.92 59.1064 27 58.9264 27H56.2664C56.0864 27 55.9664 26.9 55.9664 26.76V26.72C55.9664 26.34 56.7064 26.32 56.3264 25.86L53.2864 22.04L51.7664 23.44V25.6C51.7664 26.3 52.5464 26.28 52.5464 26.68V26.74C52.5464 26.9 52.3864 27 52.1264 27H49.6864C49.4464 27 49.2864 26.9 49.2864 26.74V26.68C49.2864 26.28 50.0064 26.3 50.0064 25.6V14.36C50.0064 13.58 49.2264 13.46 49.2264 13.16V13.12C49.2264 12.96 49.3264 12.9 49.5064 12.8L51.1264 12.04C51.5264 11.86 51.7664 12.06 51.7664 12.32V22.36L55.8064 18.8C56.3264 18.34 55.3664 18.06 55.3664 17.7V17.64C55.3664 17.48 55.5064 17.4 55.6864 17.4H57.9464C58.1064 17.4 58.2264 17.48 58.2264 17.62V17.68C58.2264 18.06 57.4464 18.24 56.8264 18.78L54.4464 20.98L58.2264 25.86ZM67.2102 24.18C67.3902 23.9 67.8502 23.96 67.7902 24.34C67.5502 25.54 66.2302 27.2 63.7302 27.2C61.1502 27.2 59.0902 25.24 59.0902 22.12C59.0902 19.3 61.1502 17.2 63.8102 17.2C66.2102 17.2 67.5302 18.78 67.5302 20.16C67.5302 20.8 67.1902 21.14 66.5902 21.34L61.0502 23.16C61.5102 24.88 62.7302 25.92 64.3502 25.92C65.8302 25.92 66.7702 25.14 67.2102 24.18ZM63.5102 17.84C61.8902 17.84 60.8302 19.44 60.8302 21.48C60.8302 21.84 60.8502 22.18 60.9102 22.5L65.3702 20.9C65.7102 20.76 65.8502 20.54 65.8502 20.2C65.8502 19.3 64.8902 17.84 63.5102 17.84ZM72.6525 27.2C71.1125 27.2 70.0725 26.22 70.0725 24.18V18.2H68.7525C68.5725 18.2 68.4525 18.08 68.4525 17.9V17.7C68.4525 17.52 68.5525 17.4 68.7525 17.4H69.4725C70.4325 17.4 70.8925 16.64 70.9925 15.5C71.0125 15.24 71.1525 15.1 71.3325 15.1H71.5325C71.7725 15.1 71.8525 15.24 71.8525 15.5L71.8725 17.4H74.6325C74.7925 17.4 74.9325 17.54 74.9325 17.7V17.9C74.9325 18.08 74.7925 18.2 74.6325 18.2H71.8725V24.2C71.8725 25.3 72.3925 25.88 73.1325 25.88C74.0125 25.88 74.5325 25.36 74.6125 24.68C74.7325 24.38 75.2125 24.4 75.2125 24.76C75.2125 26 74.2525 27.2 72.6525 27.2ZM77.8414 15.5C77.0214 15.5 76.5014 15 76.5014 14.26C76.5014 13.52 77.0214 13 77.8414 13C78.6214 13 79.1414 13.52 79.1414 14.26C79.1414 15 78.6214 15.5 77.8414 15.5ZM76.6814 27C76.4414 27 76.3014 26.9 76.3014 26.74V26.66C76.3014 26.28 77.0214 26.28 77.0214 25.58V19.62C77.0214 18.84 76.3014 18.68 76.3014 18.38V18.34C76.3014 18.2 76.4214 18.14 76.6014 18.04L78.1414 17.28C78.5614 17.08 78.7614 17.28 78.7614 17.56V25.58C78.7614 26.28 79.5614 26.28 79.5614 26.66V26.74C79.5614 26.9 79.3814 27 79.1414 27H76.6814ZM90.5847 25.56C90.6247 26.3 91.3047 26.3 91.3047 26.68V26.76C91.3047 26.92 91.1447 27.02 90.8847 27.02H88.5047C88.2447 27.02 88.0847 26.92 88.0847 26.76V26.68C88.0847 26.3 88.8447 26.3 88.8047 25.58L88.6047 21.58C88.5047 19.14 87.5247 17.98 86.1447 17.98C84.6647 17.98 83.6447 19.16 83.6447 20.74V25.6C83.6447 26.3 84.4447 26.3 84.4447 26.68V26.76C84.4447 26.92 84.2847 27.02 84.0247 27.02H81.5247C81.2847 27.02 81.1247 26.92 81.1247 26.76V26.68C81.1247 26.3 81.9047 26.3 81.9047 25.6V19.54C81.9047 18.68 81.0647 18.72 81.0647 18.36V18.3C81.0647 18.16 81.1847 18.08 81.3847 18L82.8847 17.28C83.2647 17.08 83.4447 17.28 83.4447 17.58V19.04C84.0247 17.92 85.1847 17.2 86.5647 17.2C88.5247 17.2 90.1647 18.52 90.3647 21.62L90.5847 25.56ZM101.069 17.4C101.749 17.4 101.869 17.7 101.629 17.9C101.269 18.28 100.589 18.2 99.9891 18.36C100.849 19 101.389 20.1 101.389 21.12C101.389 22.78 100.469 24.08 98.9891 24.72C100.729 25.1 101.589 26.06 101.589 27.24C101.589 29.1 99.6491 30.24 96.9491 30.24C93.8691 30.24 92.3891 28.48 92.3891 27.2C92.3891 26.8 92.6091 26.44 93.1291 26.44C94.3691 26.44 93.7291 29.58 97.0691 29.6C98.7091 29.6 99.8091 28.7 99.8091 27.36C99.8091 26.08 98.9491 25.2 97.5891 25.08C97.3291 25.1 97.0891 25.12 96.8291 25.12C94.4291 25.12 92.5491 23.4 92.5491 21.24C92.5491 18.9 94.3091 17.2 96.9691 17.2C98.3291 17.2 98.5491 17.4 101.069 17.4ZM97.1491 24.46C98.6891 24.46 99.6491 23.28 99.6491 21.74C99.6491 19.66 98.4291 17.84 96.6491 17.84C95.2091 17.84 94.2891 19 94.2891 20.52C94.2891 22.66 95.5291 24.46 97.1491 24.46Z" fill="#D9D9D9"/>
<defs>
<filter id="filter0_i_1_3160" x="0" y="0" width="115" height="50.0354" filterUnits="userSpaceOnUse" color-interpolation-filters="sRGB">
<feFlood flood-opacity="0" result="BackgroundImageFix"/>
<feBlend mode="normal" in="SourceGraphic" in2="BackgroundImageFix" result="shape"/>
<feColorMatrix in="SourceAlpha" type="matrix" values="0 0 0 0 0 0 0 0 0 0 0 0 0 0 0 0 0 0 127 0" result="hardAlpha"/>
<feOffset/>
<feGaussianBlur stdDeviation="7.5"/>
<feComposite in2="hardAlpha" operator="arithmetic" k2="-1" k3="1"/>
<feColorMatrix type="matrix" values="0 0 0 0 1 0 0 0 0 1 0 0 0 0 1 0 0 0 0.5 0"/>
<feBlend mode="normal" in2="shape" result="effect1_innerShadow_1_3160"/>
</filter>
</defs>
</svg>
