<svg width="44" height="44" viewBox="0 0 44 44" fill="none" xmlns="http://www.w3.org/2000/svg">
<g clip-path="url(#clip0_1_216)">
<path fill-rule="evenodd" clip-rule="evenodd" d="M34.4437 3.3302L37.5568 6.44327L40.6699 9.55634C36.2167 14.4596 37.3756 17.2779 44.0001 17.5957V26.4014C37.3756 26.7207 36.2167 29.5375 40.6699 34.4408L37.5568 37.5539L34.4437 40.6669C29.539 36.2137 26.7221 37.3712 26.4044 43.9971H22.0015H17.5986C17.2794 37.3712 14.4625 36.2137 9.55927 40.6669L6.4462 37.5539L3.33313 34.4408C7.78633 29.5375 6.62737 26.7192 0.00292969 26.4014V17.5957C6.62737 17.2765 7.78633 14.4596 3.33313 9.55634L6.4462 6.44327L9.55927 3.3302C14.4611 7.7834 17.278 6.62588 17.5972 0H22.0001H26.4029C26.7221 6.62588 29.539 7.7834 34.4423 3.3302H34.4437Z" fill="white"/>
<path fill-rule="evenodd" clip-rule="evenodd" d="M26.6645 16.5187L28.8861 21.2135H30.7151V25.0771L32.5312 28.9149H27.7962L26.0045 25.1692H17.994L16.2023 28.9149H11.4673L13.2834 25.0771V21.2135H15.1124L17.334 16.5187V12.6133H26.6631V16.5187H26.6645ZM22 21.2149H24.1137L22.0244 16.8451H21.977L19.8877 21.2149H22.0014H22Z" fill="black"/>
<path opacity="0.92" d="M29.3677 12.6133H14.6306V16.569H29.3677V12.6133Z" fill="#161616"/>
<path opacity="0.27" d="M30.6606 21.2149H13.2302V25.1706H30.6606V21.2149Z" fill="#494A4A"/>
<path opacity="0.96" fill-rule="evenodd" clip-rule="evenodd" d="M26.0045 25.1691L19.8862 21.2149H24.1137L26.0045 25.1691Z" fill="#787777"/>
<path fill-rule="evenodd" clip-rule="evenodd" d="M22 8.16444C29.641 8.16444 35.8355 14.359 35.8355 22C35.8355 29.641 29.641 35.8356 22 35.8356C14.3589 35.8356 8.16443 29.641 8.16443 22C8.16443 14.359 14.3589 8.16444 22 8.16444ZM36.7285 22C36.7285 13.8658 30.1342 7.2715 22 7.2715C13.8657 7.2715 7.27148 13.8658 7.27148 22C7.27148 30.1342 13.8657 36.7285 22 36.7285C30.1342 36.7285 36.7285 30.1342 36.7285 22Z" fill="black"/>
</g>
<defs>
<clipPath id="clip0_1_216">
<rect width="44" height="44" fill="white"/>
</clipPath>
</defs>
</svg>
