<svg width="176" height="52" viewBox="0 0 176 52" fill="none" xmlns="http://www.w3.org/2000/svg">
<g filter="url(#filter0_i_1_3157)">
<path d="M0 5C0 2.23858 2.23858 0 5 0H171C173.761 0 176 2.23858 176 5V36C176 38.7614 173.761 41 171 41H139.75H114.125H103.1C101.944 41 100.824 41.4003 99.9303 42.1327L91.6693 48.9027C89.8263 50.4131 87.1737 50.4131 85.3307 48.9027L77.0697 42.1327C76.1759 41.4003 75.056 41 73.9004 41H62.875H37.25H5C2.23858 41 0 38.7614 0 36V5Z" fill="white" fill-opacity="0.02"/>
</g>
<path d="M0.5 5C0.5 2.51472 2.51472 0.5 5 0.5H171C173.485 0.5 175.5 2.51472 175.5 5V36C175.5 38.4853 173.485 40.5 171 40.5H139.75H114.125H103.1C101.828 40.5 100.597 40.9403 99.6134 41.746L91.3523 48.516C89.6937 49.8753 87.3063 49.8753 85.6477 48.516L77.3866 41.746C76.4035 40.9403 75.1716 40.5 73.9004 40.5H62.875H37.25H5C2.51472 40.5 0.5 38.4853 0.5 36V5Z" stroke="white" stroke-opacity="0.1"/>
<path d="M17.76 27C17.52 27 17.36 26.92 17.36 26.76V26.72C17.36 26.34 18.1 26.32 18.1 25.6V13.66H15.38C14.36 13.66 14.24 15.82 13.66 15.82H13.48C13.28 15.82 13.18 15.7 13.22 15.42L13.54 13.24C13.58 12.96 13.72 12.8 14.04 12.8H23.98C24.3 12.8 24.44 12.96 24.5 13.24L24.94 15.44C25 15.7 24.88 15.82 24.7 15.82H24.5C23.92 15.82 23.66 13.66 22.66 13.66H19.9V25.6C19.9 26.32 20.68 26.34 20.68 26.72V26.76C20.68 26.92 20.52 27 20.26 27H17.76ZM31.7609 24.18C31.9409 23.9 32.4009 23.96 32.3409 24.34C32.1009 25.54 30.7809 27.2 28.2809 27.2C25.7009 27.2 23.6409 25.24 23.6409 22.12C23.6409 19.3 25.7009 17.2 28.3609 17.2C30.7609 17.2 32.0809 18.78 32.0809 20.16C32.0809 20.8 31.7409 21.14 31.1409 21.34L25.6009 23.16C26.0609 24.88 27.2809 25.92 28.9009 25.92C30.3809 25.92 31.3209 25.14 31.7609 24.18ZM28.0609 17.84C26.4409 17.84 25.3809 19.44 25.3809 21.48C25.3809 21.84 25.4009 22.18 25.4609 22.5L29.9209 20.9C30.2609 20.76 30.4009 20.54 30.4009 20.2C30.4009 19.3 29.4409 17.84 28.0609 17.84ZM41.8233 25.4C41.9433 26.64 42.9433 26.2 42.9433 26.7C42.9433 27 42.4033 27.12 41.6633 27.12C40.7633 27.12 40.2833 26.9 40.2033 25.8C39.7433 26.64 38.7833 27.2 37.3233 27.2C35.1233 27.2 33.6033 26.1 33.6033 24.18C33.5833 22.26 35.1833 21.22 37.2633 21.22C38.3233 21.22 39.1833 21.52 39.7233 22.02L39.6833 21.48C39.4633 19.12 38.8233 17.84 37.2233 17.84C35.1433 17.84 35.4633 20.12 34.4633 20.12C33.9833 20.12 33.6833 19.84 33.6833 19.38C33.6833 18.32 35.0433 17.2 37.2233 17.2C39.6833 17.2 41.1633 18.78 41.4233 21.42L41.8233 25.4ZM37.7633 26.56C39.1033 26.56 39.9833 25.58 39.9433 24.36L39.8633 23.46C39.6633 22.52 38.8433 21.86 37.6633 21.86C36.3033 21.86 35.3633 22.7 35.3633 23.94C35.3633 25.4 36.3233 26.56 37.7633 26.56ZM59.7805 25.58C59.8205 26.3 60.5205 26.34 60.5205 26.7V26.78C60.5205 26.94 60.3405 27.02 60.1205 27.02H57.7205C57.4605 27.02 57.3205 26.94 57.3205 26.78V26.7C57.3205 26.34 58.0405 26.3 58.0205 25.6L57.8205 21.7C57.6805 19 56.7805 17.98 55.3205 17.98C54.0605 17.98 53.0005 19.1 52.9405 20.62C53.0005 20.92 53.0205 21.26 53.0205 21.6V25.6C53.0205 26.3 53.7205 26.34 53.7205 26.7V26.78C53.7205 26.94 53.5805 27.02 53.3405 27.02H50.9805C50.7205 27.02 50.5605 26.94 50.5605 26.78V26.7C50.5605 26.34 51.2605 26.3 51.2605 25.6V21.5C51.2605 19.28 50.1605 17.98 48.7805 17.98C47.3605 17.98 46.3605 19.18 46.3005 20.68L46.3205 25.6C46.3205 26.3 47.1005 26.34 47.1005 26.7V26.78C47.1005 26.94 46.9405 27.02 46.7005 27.02H44.2005C43.9605 27.02 43.8005 26.94 43.8005 26.78V26.7C43.8005 26.34 44.5605 26.3 44.5605 25.6V19.54C44.5605 18.74 43.7605 18.72 43.7605 18.36V18.3C43.7605 18.16 43.8605 18.08 44.0605 18L45.6205 17.28C46.0005 17.08 46.2005 17.28 46.2005 17.58V19C46.7805 17.92 47.8805 17.2 49.1605 17.2C50.6405 17.2 51.9405 17.98 52.5805 19.4C53.0805 18.02 54.3405 17.2 55.7805 17.2C57.8205 17.2 59.3605 18.44 59.5605 21.74L59.7805 25.58ZM77.2169 25.6C77.5369 26.34 78.1769 26.34 78.1769 26.72V26.76C78.1769 26.92 78.0369 27 77.7969 27H74.9769C74.7369 27 74.5969 26.92 74.5969 26.76V26.72C74.5969 26.34 75.5369 26.3 75.2769 25.6L74.3169 23.24H67.8369L66.9569 25.6C66.6769 26.3 67.6369 26.34 67.6369 26.72V26.76C67.6369 26.92 67.4769 27 67.2169 27H65.3169C65.0569 27 64.9169 26.92 64.9169 26.76V26.72C64.9169 26.34 65.5769 26.36 65.8569 25.6L70.2969 14.26C70.5369 13.66 69.6769 13.4 69.6769 13.08V13.02C69.6769 12.9 69.7569 12.8 69.9569 12.8H71.1169C71.5969 12.8 71.8569 12.98 72.0569 13.46L77.2169 25.6ZM68.1769 22.38H73.9769L70.9769 14.96L68.1769 22.38ZM79.3158 27C79.0758 27 78.9358 26.9 78.9358 26.74V26.68C78.9358 26.28 79.6358 26.3 79.6358 25.6V14.36C79.6358 13.58 78.9358 13.46 78.9358 13.16V13.12C78.9358 12.96 79.0358 12.9 79.2158 12.8L80.7758 12.04C81.1758 11.84 81.3958 12.06 81.3958 12.32V25.6C81.3958 26.3 82.1758 26.28 82.1758 26.68V26.74C82.1758 26.9 82.0158 27 81.7758 27H79.3158ZM84.0423 27C83.8023 27 83.6623 26.9 83.6623 26.74V26.68C83.6623 26.28 84.3623 26.3 84.3623 25.6V14.36C84.3623 13.58 83.6623 13.46 83.6623 13.16V13.12C83.6623 12.96 83.7623 12.9 83.9423 12.8L85.5023 12.04C85.9023 11.84 86.1223 12.06 86.1223 12.32V25.6C86.1223 26.3 86.9023 26.28 86.9023 26.68V26.74C86.9023 26.9 86.7423 27 86.5023 27H84.0423ZM93.5089 27.2C90.3289 27.2 88.2889 24.78 88.2889 22.06C88.2889 19.28 90.4089 17.2 93.1489 17.2C96.1489 17.2 98.2289 19.48 98.2289 22.28C98.2289 25.04 96.3289 27.2 93.5089 27.2ZM93.7489 26.54C95.3089 26.54 96.4689 25.12 96.4689 22.88C96.4689 20.08 94.9889 17.86 92.9489 17.86C91.2489 17.86 90.0689 19.26 90.0689 21.5C90.0689 24.06 91.5489 26.54 93.7489 26.54ZM104.518 27.2C101.738 27.2 99.5175 25.04 99.5175 22.14C99.5175 19.14 101.718 17.22 104.438 17.2C106.618 17.18 108.338 18.56 108.338 19.68C108.338 20.08 108.098 20.4 107.538 20.38C106.378 20.34 106.398 17.86 104.118 17.84C102.458 17.84 101.278 19.38 101.278 21.36C101.278 24.16 102.858 25.94 105.078 25.94C106.478 25.94 107.398 25.06 107.858 24.06C108.018 23.76 108.518 23.82 108.438 24.22C108.158 25.68 106.838 27.2 104.518 27.2ZM117.937 25.4C118.057 26.64 119.057 26.2 119.057 26.7C119.057 27 118.517 27.12 117.777 27.12C116.877 27.12 116.397 26.9 116.317 25.8C115.857 26.64 114.897 27.2 113.437 27.2C111.237 27.2 109.717 26.1 109.717 24.18C109.697 22.26 111.297 21.22 113.377 21.22C114.437 21.22 115.297 21.52 115.837 22.02L115.797 21.48C115.577 19.12 114.937 17.84 113.337 17.84C111.257 17.84 111.577 20.12 110.577 20.12C110.097 20.12 109.797 19.84 109.797 19.38C109.797 18.32 111.157 17.2 113.337 17.2C115.797 17.2 117.277 18.78 117.537 21.42L117.937 25.4ZM113.877 26.56C115.217 26.56 116.097 25.58 116.057 24.36L115.977 23.46C115.777 22.52 114.957 21.86 113.777 21.86C112.417 21.86 111.477 22.7 111.477 23.94C111.477 25.4 112.437 26.56 113.877 26.56ZM123.375 27.2C121.835 27.2 120.795 26.22 120.795 24.18V18.2H119.475C119.295 18.2 119.175 18.08 119.175 17.9V17.7C119.175 17.52 119.275 17.4 119.475 17.4H120.195C121.155 17.4 121.615 16.64 121.715 15.5C121.735 15.24 121.875 15.1 122.055 15.1H122.255C122.495 15.1 122.575 15.24 122.575 15.5L122.595 17.4H125.355C125.515 17.4 125.655 17.54 125.655 17.7V17.9C125.655 18.08 125.515 18.2 125.355 18.2H122.595V24.2C122.595 25.3 123.115 25.88 123.855 25.88C124.735 25.88 125.255 25.36 125.335 24.68C125.455 24.38 125.935 24.4 125.935 24.76C125.935 26 124.975 27.2 123.375 27.2ZM128.564 15.5C127.744 15.5 127.224 15 127.224 14.26C127.224 13.52 127.744 13 128.564 13C129.344 13 129.864 13.52 129.864 14.26C129.864 15 129.344 15.5 128.564 15.5ZM127.404 27C127.164 27 127.024 26.9 127.024 26.74V26.66C127.024 26.28 127.744 26.28 127.744 25.58V19.62C127.744 18.84 127.024 18.68 127.024 18.38V18.34C127.024 18.2 127.144 18.14 127.324 18.04L128.864 17.28C129.284 17.08 129.484 17.28 129.484 17.56V25.58C129.484 26.28 130.284 26.28 130.284 26.66V26.74C130.284 26.9 130.104 27 129.864 27H127.404ZM136.907 27.2C133.727 27.2 131.687 24.78 131.687 22.06C131.687 19.28 133.807 17.2 136.547 17.2C139.547 17.2 141.627 19.48 141.627 22.28C141.627 25.04 139.727 27.2 136.907 27.2ZM137.147 26.54C138.707 26.54 139.867 25.12 139.867 22.88C139.867 20.08 138.387 17.86 136.347 17.86C134.647 17.86 133.467 19.26 133.467 21.5C133.467 24.06 134.947 26.54 137.147 26.54ZM152.616 25.56C152.656 26.3 153.336 26.3 153.336 26.68V26.76C153.336 26.92 153.176 27.02 152.916 27.02H150.536C150.276 27.02 150.116 26.92 150.116 26.76V26.68C150.116 26.3 150.876 26.3 150.836 25.58L150.636 21.58C150.536 19.14 149.556 17.98 148.176 17.98C146.696 17.98 145.676 19.16 145.676 20.74V25.6C145.676 26.3 146.476 26.3 146.476 26.68V26.76C146.476 26.92 146.316 27.02 146.056 27.02H143.556C143.316 27.02 143.156 26.92 143.156 26.76V26.68C143.156 26.3 143.936 26.3 143.936 25.6V19.54C143.936 18.68 143.096 18.72 143.096 18.36V18.3C143.096 18.16 143.216 18.08 143.416 18L144.916 17.28C145.296 17.08 145.476 17.28 145.476 17.58V19.04C146.056 17.92 147.216 17.2 148.596 17.2C150.556 17.2 152.196 18.52 152.396 21.62L152.616 25.56ZM158.5 27.18C155.84 27.18 154.44 25.84 154.44 24.9C154.44 24.42 154.76 24.16 155.22 24.16C156.46 24.16 155.82 26.6 158.5 26.6C159.78 26.6 160.78 25.98 160.78 24.84C160.78 21.9 154.66 23.88 154.66 19.94C154.66 18.4 156.22 17.2 158.42 17.2C160.9 17.2 162.32 18.48 162.32 19.56C162.32 19.96 162 20.26 161.6 20.26C160.46 20.26 160.96 17.82 158.5 17.82C157.34 17.82 156.44 18.56 156.44 19.56C156.44 22.44 162.54 20.48 162.54 24.48C162.54 25.98 160.98 27.18 158.5 27.18Z" fill="#D9D9D9"/>
<defs>
<filter id="filter0_i_1_3157" x="0" y="0" width="176" height="50.0354" filterUnits="userSpaceOnUse" color-interpolation-filters="sRGB">
<feFlood flood-opacity="0" result="BackgroundImageFix"/>
<feBlend mode="normal" in="SourceGraphic" in2="BackgroundImageFix" result="shape"/>
<feColorMatrix in="SourceAlpha" type="matrix" values="0 0 0 0 0 0 0 0 0 0 0 0 0 0 0 0 0 0 127 0" result="hardAlpha"/>
<feOffset/>
<feGaussianBlur stdDeviation="7.5"/>
<feComposite in2="hardAlpha" operator="arithmetic" k2="-1" k3="1"/>
<feColorMatrix type="matrix" values="0 0 0 0 1 0 0 0 0 1 0 0 0 0 1 0 0 0 0.5 0"/>
<feBlend mode="normal" in2="shape" result="effect1_innerShadow_1_3157"/>
</filter>
</defs>
</svg>
